<svg width="31" height="30" viewBox="0 0 31 30" fill="none" xmlns="http://www.w3.org/2000/svg">
    <path d="M29.3026 9.16084C27.7209 5.47334 25.0331 2.79152 21.3149 1.20569C19.4564 0.413093 17.5094 0.00823975 15.4753 0.00823975C13.4416 0.00823975 11.509 0.409269 9.6526 1.20569C5.9651 2.78731 3.26544 5.46741 1.68098 9.16084C0.88701 11.0112 0.5 12.9498 0.5 14.9835C0.5 17.0177 0.88701 18.9723 1.68098 20.8231C3.26544 24.5165 5.96544 27.2127 9.6526 28.7947C11.5093 29.5911 13.4416 29.9918 15.4753 29.9918C17.5091 29.9918 19.4564 29.5869 21.3146 28.7947C25.0328 27.2088 27.7206 24.5103 29.3026 20.8231C30.099 18.9664 30.5 17.0177 30.5 14.9835C30.5 12.9498 30.0993 11.0175 29.3026 9.16084ZM26.908 21.6104C25.7305 23.6298 24.1174 25.2318 22.0857 26.4163C20.0664 27.5938 17.8538 28.1876 15.4757 28.1876C13.6879 28.1876 11.9821 27.8433 10.358 27.1378C8.73407 26.4327 7.33191 25.5058 6.15897 24.3332C4.98603 23.1602 4.05245 21.7444 3.35436 20.1177C2.65833 18.4968 2.32103 16.7717 2.32103 14.9836C2.32103 12.6052 2.90539 10.4038 4.07627 8.39001C5.25132 6.36888 6.8648 4.76515 8.88211 3.58412C10.8991 2.40314 13.0973 1.81246 15.4753 1.81246C17.8538 1.81246 20.066 2.40662 22.0854 3.58412C24.1171 4.76863 25.7267 6.37231 26.9077 8.38996C28.0887 10.4073 28.679 12.6052 28.679 14.9835C28.679 17.362 28.0926 19.5784 26.908 21.6104Z" fill="#2C61B2"/>
    <path d="M16.4268 14.8524V6.35583C16.4268 5.8474 15.9838 5.4373 15.4753 5.4373C14.9998 5.4373 14.5732 5.8474 14.5732 6.35583V14.9835C14.5732 15 14.6061 15.0658 14.6061 15.1148C14.5732 15.4101 14.6554 15.6561 14.8521 15.8531L19.7567 20.7574C20.0848 21.0855 20.6916 21.0855 21.0196 20.7574C21.3967 20.3801 21.3719 19.8328 21.0196 19.478L16.4268 14.8524Z" fill="#2C61B2"/>
</svg>
