<?xml version="1.0" encoding="UTF-8"?>
<!DOCTYPE svg PUBLIC "-//W3C//DTD SVG 1.1//EN" "http://www.w3.org/Graphics/SVG/1.1/DTD/svg11.dtd">
<!-- Creator: CorelDRAW Home & Student X7 -->
<svg xmlns="http://www.w3.org/2000/svg" xml:space="preserve" width="120px" height="120px" version="1.1" style="shape-rendering:geometricPrecision; text-rendering:geometricPrecision; image-rendering:optimizeQuality; fill-rule:evenodd; clip-rule:evenodd"
viewBox="0 0 12000 12000"
 xmlns:xlink="http://www.w3.org/1999/xlink">
 <defs>
  <style type="text/css">
   <![CDATA[
    .fil0 {fill:blue}
   ]]>
  </style>
 </defs>
 <g id="Слой_x0020_1">
  <metadata id="CorelCorpID_0Corel-Layer"/>
  <path class="fil0" d="M4919 178l4693 2759 -1293 0c-36,185 -98,415 -186,618l-1660 4000 -1784 -4618 -1391 0 1621 -2759zm4826 2837l1866 1097 -1653 2813 -394 -3096c-57,-466 50,-689 181,-814zm-548 5205l-2116 3602 -4599 -2704 1360 0c-477,-247 -407,-662 -354,-1033l592 -4203 1731 4371c114,291 256,556 468,742l247 211 2181 -5342 468 4150c8,69 16,138 22,206zm-6826 833l-1982 -1165 2856 -4861c269,228 202,494 155,828l-618 4256c-64,454 -214,736 -411,942z"/>
 </g>
</svg>
