<?xml version="1.0" encoding="UTF-8" standalone="no"?>
<svg
   xmlns:dc="http://purl.org/dc/elements/1.1/"
   xmlns:cc="http://creativecommons.org/ns#"
   xmlns:rdf="http://www.w3.org/1999/02/22-rdf-syntax-ns#"
   xmlns:svg="http://www.w3.org/2000/svg"
   xmlns="http://www.w3.org/2000/svg"
   xmlns:sodipodi="http://sodipodi.sourceforge.net/DTD/sodipodi-0.dtd"
   xmlns:inkscape="http://www.inkscape.org/namespaces/inkscape"
   width="35"
   height="35"
   viewBox="0 0 35 35"
   version="1.1"
   id="svg3795"
   sodipodi:docname="manis_youtube.svg"
   inkscape:version="0.92.4 (5da689c313, 2019-01-14)">
  <metadata
     id="metadata3801">
    <rdf:RDF>
      <cc:Work
         rdf:about="">
        <dc:format>image/svg+xml</dc:format>
        <dc:type
           rdf:resource="http://purl.org/dc/dcmitype/StillImage" />
        <dc:title>Youtube Manis</dc:title>
      </cc:Work>
    </rdf:RDF>
  </metadata>
  <defs
     id="defs3799" />
  <sodipodi:namedview
     pagecolor="#ffffff"
     bordercolor="#666666"
     borderopacity="1"
     objecttolerance="10"
     gridtolerance="10"
     guidetolerance="10"
     inkscape:pageopacity="0"
     inkscape:pageshadow="2"
     inkscape:window-width="1920"
     inkscape:window-height="1017"
     id="namedview3797"
     showgrid="false"
     inkscape:zoom="3.9333333"
     inkscape:cx="30.5"
     inkscape:cy="30"
     inkscape:window-x="-8"
     inkscape:window-y="-8"
     inkscape:window-maximized="1"
     inkscape:current-layer="svg3795" />
  <!-- Generator: Sketch 52.4 (67378) - http://www.bohemiancoding.com/sketch -->
  <title
     id="title3782">Youtube Manis</title>
  <desc
     id="desc3784">Created with Sketch.</desc>
  <g
     id="Page-1"
     transform="scale(0.58249158,0.58333333)"
     style="fill:none;fill-rule:evenodd;stroke:none;stroke-width:1">
    <g
       id="soc_circle"
       transform="translate(-180,-280)">
      <g
         id="color_theme">
        <g
           id="Color"
           transform="translate(80,80)">
          <g
             id="Youtube"
             transform="translate(100,200)">
            <path
               d="M 0,30 C 0,13.431457 13.450866,0 30.043353,0 c 16.592486,0 30.043352,13.431457 30.043352,30 0,16.568543 -13.450866,30 -30.043352,30 C 13.450866,60 0,46.568543 0,30 Z"
               id="back"
               inkscape:connector-curvature="0"
               style="fill:#ce1312" />
            <path
               d="m 45.68,23.961345 c 0,0 -0.313,-2.253299 -1.272,-3.245568 -1.217,-1.302928 -2.581,-1.309059 -3.206,-1.38468 C 36.724,19 30.007,19 30.007,19 h -0.014 c 0,0 -6.717,0 -11.195,0.331097 -0.626,0.07562 -1.989,0.08175 -3.207,1.38468 -0.959,0.992269 -1.271,3.245568 -1.271,3.245568 0,0 -0.32,2.646732 -0.32,5.292443 v 2.481183 c 0,2.646732 0.32,5.292443 0.32,5.292443 0,0 0.312,2.253299 1.271,3.245568 1.218,1.302928 2.817,1.262051 3.529,1.397965 C 21.68,41.922335 30,42 30,42 c 0,0 6.724,-0.01022 11.202,-0.341316 0.625,-0.07664 1.989,-0.08277 3.206,-1.385702 0.959,-0.992269 1.272,-3.245568 1.272,-3.245568 0,0 0.32,-2.645711 0.32,-5.292443 v -2.481183 c 0,-2.645711 -0.32,-5.292443 -0.32,-5.292443 z"
               id="path3787"
               inkscape:connector-curvature="0"
               style="fill:#ffffff" />
            <polygon
               id="Path"
               points="35.341,30.163283 26.696,34.741414 26.695,25.553472 "
               style="fill:#ce1312" />
          </g>
        </g>
      </g>
    </g>
  </g>
</svg>
