<?xml version="1.0" encoding="UTF-8" standalone="no"?>
<svg
   xmlns:dc="http://purl.org/dc/elements/1.1/"
   xmlns:cc="http://creativecommons.org/ns#"
   xmlns:rdf="http://www.w3.org/1999/02/22-rdf-syntax-ns#"
   xmlns:svg="http://www.w3.org/2000/svg"
   xmlns="http://www.w3.org/2000/svg"
   xmlns:sodipodi="http://sodipodi.sourceforge.net/DTD/sodipodi-0.dtd"
   xmlns:inkscape="http://www.inkscape.org/namespaces/inkscape"
   width="35"
   height="35"
   viewBox="0 0 35 35"
   version="1.1"
   id="svg3895"
   sodipodi:docname="manis_vk.svg"
   inkscape:version="0.92.4 (5da689c313, 2019-01-14)">
  <metadata
     id="metadata3901">
    <rdf:RDF>
      <cc:Work
         rdf:about="">
        <dc:format>image/svg+xml</dc:format>
        <dc:type
           rdf:resource="http://purl.org/dc/dcmitype/StillImage" />
        <dc:title>VK Manis</dc:title>
      </cc:Work>
    </rdf:RDF>
  </metadata>
  <defs
     id="defs3899" />
  <sodipodi:namedview
     pagecolor="#ffffff"
     bordercolor="#666666"
     borderopacity="1"
     objecttolerance="10"
     gridtolerance="10"
     guidetolerance="10"
     inkscape:pageopacity="0"
     inkscape:pageshadow="2"
     inkscape:window-width="1920"
     inkscape:window-height="1017"
     id="namedview3897"
     showgrid="false"
     inkscape:zoom="3.9333333"
     inkscape:cx="30"
     inkscape:cy="30"
     inkscape:window-x="-8"
     inkscape:window-y="-8"
     inkscape:window-maximized="1"
     inkscape:current-layer="svg3895" />
  <!-- Generator: Sketch 52.4 (67378) - http://www.bohemiancoding.com/sketch -->
  <title
     id="title3884">VK Manis</title>
  <desc
     id="desc3886">Created with Sketch.</desc>
  <g
     id="Page-1"
     transform="scale(0.58333333)"
     style="fill:none;fill-rule:evenodd;stroke:none;stroke-width:1">
    <g
       id="soc_circle"
       transform="translate(-180,-81)">
      <g
         id="color_theme">
        <g
           id="Color"
           transform="translate(80,80)">
          <g
             id="VK"
             transform="translate(100,1)">
            <path
               d="M 0,30 C 0,13.431457 13.431457,0 30,0 46.568543,0 60,13.431457 60,30 60,46.568543 46.568543,60 30,60 13.431457,60 0,46.568543 0,30 Z"
               id="back"
               inkscape:connector-curvature="0"
               style="fill:#4c6c91" />
            <path
               d="m 31.569328,38.8451 c 0,0 0.57753,-0.06299 0.873338,-0.374861 0.270766,-0.285755 0.261375,-0.825003 0.261375,-0.825003 0,0 -0.036,-2.518024 1.155059,-2.889813 1.173841,-0.365644 2.681053,2.435063 4.280607,3.512022 1.208273,0.814248 2.125434,0.636035 2.125434,0.636035 l 4.274346,-0.05838 c 0,0 2.234994,-0.135196 1.175406,-1.860481 -0.08765,-0.141341 -0.618222,-1.276679 -3.177196,-3.608809 -2.681052,-2.441209 -2.321074,-2.046375 0.906205,-6.269713 1.965793,-2.571795 2.751484,-4.141912 2.50576,-4.813283 -0.233203,-0.64218 -1.679376,-0.471649 -1.679376,-0.471649 l -4.811182,0.02919 c 0,0 -0.356848,-0.04763 -0.621353,0.107542 -0.258245,0.152096 -0.425713,0.506985 -0.425713,0.506985 0,0 -0.760649,1.989531 -1.776413,3.682553 -2.142651,3.570402 -2.998772,3.759369 -3.349359,3.53814 -0.815428,-0.517739 -0.611962,-2.077102 -0.611962,-3.184787 0,-3.461323 0.535271,-4.903926 -1.040806,-5.277251 -0.522751,-0.124441 -0.90777,-0.205866 -2.245949,-0.219693 -1.716938,-0.0169 -3.16937,0.0061 -3.992624,0.400979 -0.547793,0.26271 -0.970375,0.849583 -0.71213,0.883382 0.317719,0.04148 1.037675,0.190504 1.419565,0.700561 0.493013,0.65908 0.475796,2.137018 0.475796,2.137018 0,0 0.283287,4.074314 -0.662046,4.579763 -0.64796,0.347207 -1.536949,-0.361035 -3.447962,-3.601129 -0.978201,-1.659223 -1.716938,-3.493586 -1.716938,-3.493586 0,0 -0.142426,-0.342599 -0.397541,-0.526957 -0.308328,-0.222766 -0.738737,-0.2919 -0.738737,-0.2919 l -4.571719,0.02919 c 0,0 -0.687088,0.01844 -0.939072,0.311872 -0.223813,0.259638 -0.01722,0.798885 -0.01722,0.798885 0,0 3.579432,8.220836 7.633096,12.364284 3.717163,3.797778 7.93673,3.548894 7.93673,3.548894 z"
               id="Shape"
               inkscape:connector-curvature="0"
               style="fill:#ffffff" />
          </g>
        </g>
      </g>
    </g>
  </g>
</svg>
