<?xml version="1.0" encoding="UTF-8"?>
<!DOCTYPE svg PUBLIC "-//W3C//DTD SVG 1.1//EN" "http://www.w3.org/Graphics/SVG/1.1/DTD/svg11.dtd">
<!-- Creator: CorelDRAW Home & Student X7 -->
<svg xmlns="http://www.w3.org/2000/svg" xml:space="preserve" width="35px" height="35px" version="1.1" style="shape-rendering:geometricPrecision; text-rendering:geometricPrecision; image-rendering:optimizeQuality; fill-rule:evenodd; clip-rule:evenodd"
viewBox="0 0 35 35"
 xmlns:xlink="http://www.w3.org/1999/xlink">
 <defs>
  <style type="text/css">
   <![CDATA[
    .fil1 {fill:#FEFEFE}
    .fil0 {fill:#295AA3}
   ]]>
  </style>
 </defs>
 <g id="Слой_x0020_1">
  <metadata id="CorelCorpID_0Corel-Layer"/>
  <path class="fil0" d="M17 0c10,0 18,8 18,18 0,9 -8,17 -17,17 -10,0 -18,-8 -18,-17 0,-10 8,-18 17,-18z"/>
  <path class="fil1" d="M22 17l-3 0 0 11 -4 0 0 -11 -2 0 0 -3 2 0 0 -3c0,-1 1,-4 4,-4l3 0 0 4 -2 0c0,0 -1,0 -1,1l0 2 3 0 0 3z"/>
 </g>
</svg>
