<svg width="35" height="48" viewBox="0 0 35 48" fill="none" xmlns="http://www.w3.org/2000/svg">
    <path d="M17.4329 25.8103C13.0077 25.8103 9.38696 22.1896 9.38696 17.7644C9.38696 13.3391 13.0077 9.71838 17.4329 9.71838C21.8582 9.71838 25.4789 13.3391 25.4789 17.7644C25.4789 22.1896 21.8582 25.8103 17.4329 25.8103ZM17.4329 11.1935C13.8123 11.1935 10.8621 14.1437 10.8621 17.7644C10.8621 21.3851 13.8123 24.4693 17.4329 24.4693C21.0536 24.4693 24.0038 21.5192 24.0038 17.8985C24.0038 14.2778 21.0536 11.1935 17.4329 11.1935Z" fill="#050E65"/>
    <path d="M17.4329 47.4004C17.1647 47.4004 17.0306 47.2663 16.8965 47.1322C16.226 46.3276 0.134094 27.1513 0.134094 17.7644C0.134094 8.24329 7.91187 0.465515 17.4329 0.465515C26.954 0.465515 34.7318 8.24329 34.7318 17.7644C34.7318 27.0172 18.6398 46.3276 17.9693 47.1322C17.8352 47.4004 17.7011 47.4004 17.4329 47.4004ZM17.4329 1.94061C8.71647 1.94061 1.60919 9.04789 1.60919 17.7644C1.60919 25.6762 14.6169 42.0364 17.4329 45.6571C20.249 42.1705 33.2567 25.6762 33.2567 17.7644C33.2567 9.04789 26.1494 1.94061 17.4329 1.94061Z" fill="#050E65"/>
</svg>
