<svg width="26" height="17" viewBox="0 0 26 17" fill="none" xmlns="http://www.w3.org/2000/svg">
    <path d="M24.6298 0.200684H1.69031C1.11902 0.200684 0.660034 0.659668 0.660034 1.23096V15.2495C0.660034 15.8208 1.11902 16.2798 1.69031 16.2798H24.6298C25.201 16.2798 25.66 15.8208 25.66 15.2495V1.23096C25.66 0.659668 25.201 0.200684 24.6298 0.200684ZM1.69031 1.01123H24.6298C24.7274 1.01123 24.8104 1.07471 24.8397 1.16748L13.16 8.4624L1.48035 1.16748C1.50964 1.07471 1.59265 1.01123 1.69031 1.01123ZM1.47058 2.09033L9.8739 7.33936L1.47058 13.9995V2.09033ZM24.8495 15.2446C24.8495 15.3667 24.7518 15.4644 24.6298 15.4644H1.69031C1.56824 15.4644 1.47058 15.3667 1.47058 15.2446V15.0298L10.6014 7.81299L12.9452 9.27783C13.077 9.36084 13.243 9.36084 13.3749 9.27783L15.7186 7.81299L24.8495 15.0298V15.2446ZM24.8495 13.9995L16.4266 7.35889L24.8495 2.13428V13.9995Z" fill="#2C61B2"/>
</svg>
