<svg width="46" height="46" viewBox="0 0 46 46" fill="none" xmlns="http://www.w3.org/2000/svg">
    <path d="M44.4792 35.2151L35.3711 29.141C34.2152 28.3764 32.6658 28.6279 31.8113 29.7191L29.1582 33.1304C28.8172 33.5799 28.1974 33.7103 27.7042 33.4363L27.1995 33.1581C25.5265 32.2462 23.4448 31.1109 19.2507 26.9153C15.0566 22.7197 13.919 20.6364 13.0071 18.9665L12.7304 18.4618C12.4526 17.9687 12.5805 17.3462 13.0303 17.0025L16.4392 14.3502C17.53 13.4956 17.7819 11.9467 17.0182 10.7905L10.9441 1.68231C10.1614 0.504924 8.59099 0.15148 7.37924 0.879897L3.57054 3.16779C2.37382 3.87134 1.49584 5.01076 1.12069 6.34729C-0.250814 11.3445 0.780955 19.969 13.4856 32.6751C23.5919 42.7806 31.1155 45.4982 36.2868 45.4982C37.4769 45.5033 38.6623 45.3485 39.8113 45.0379C41.148 44.6631 42.2876 43.7851 42.9908 42.588L45.2809 38.7816C46.0104 37.5696 45.6571 35.9982 44.4792 35.2151ZM43.9888 38.0121L41.7039 41.8208C41.199 42.6848 40.3794 43.3201 39.4167 43.5936C34.8034 44.8602 26.7436 43.8111 14.5466 31.6141C2.34966 19.4171 1.30066 11.3581 2.56724 6.74406C2.84107 5.78021 3.47713 4.95953 4.3422 4.45388L8.1509 2.16897C8.67667 1.85261 9.35825 2.00596 9.69789 2.51688L12.9974 7.47063L15.7668 11.6242C16.0985 12.1258 15.9895 12.7979 15.5164 13.1691L12.1066 15.8214C11.069 16.6148 10.7726 18.0505 11.4115 19.1899L11.6823 19.6818C12.6407 21.4396 13.8322 23.6262 18.1823 27.9756C22.5324 32.325 24.7184 33.5166 26.4753 34.4749L26.9679 34.7463C28.1073 35.3851 29.543 35.0889 30.3365 34.0512L32.9888 30.6415C33.36 30.1686 34.0319 30.0597 34.5336 30.391L43.641 36.4651C44.1522 36.8045 44.3056 37.4864 43.9888 38.0121Z" fill="#050E65"/>
    <path d="M26.1587 8.00387C33.196 8.01169 38.8989 13.7147 38.9068 20.752C38.9068 21.1662 39.2425 21.5019 39.6567 21.5019C40.0709 21.5019 40.4065 21.1662 40.4065 20.752C40.3978 12.8867 34.024 6.51276 26.1587 6.50415C25.7445 6.50415 25.4088 6.83984 25.4088 7.25401C25.4088 7.66818 25.7445 8.00387 26.1587 8.00387Z" fill="#050E65"/>
    <path d="M26.1587 12.5032C30.7122 12.5086 34.4021 16.1985 34.4075 20.752C34.4075 21.1662 34.7433 21.5019 35.1574 21.5019C35.5715 21.5019 35.9072 21.1662 35.9072 20.752C35.901 15.3706 31.54 11.0096 26.1587 11.0035C25.7445 11.0035 25.4088 11.3392 25.4088 11.7533C25.4088 12.1675 25.7445 12.5032 26.1587 12.5032Z" fill="#050E65"/>
    <path d="M26.1587 17.0025C28.2284 17.005 29.9056 18.6822 29.9082 20.752C29.9082 21.1662 30.2439 21.5019 30.658 21.5019C31.0721 21.5019 31.4079 21.1662 31.4079 20.752C31.4045 17.8543 29.0564 15.5061 26.1587 15.5028C25.7445 15.5028 25.4088 15.8385 25.4088 16.2527C25.4088 16.6668 25.7445 17.0025 26.1587 17.0025Z" fill="#050E65"/>
</svg>
