<svg width="46" height="48" viewBox="0 0 46 48" fill="none" xmlns="http://www.w3.org/2000/svg">
<path fill-rule="evenodd" clip-rule="evenodd" d="M26.82 47.27L16.55 40.95V3.55L18.65 0.130005L33.14 8.82V37L26.82 47.27ZM13.65 39.11L0.47998 30.94L13.65 8.55V39.11ZM36.04 10.4L45.52 16.19L36.04 32V10.4ZM23.4 13.56V11.72C23.4 11.45 23.66 11.19 23.92 11.19H24.71C24.98 11.19 25.24 11.45 25.24 11.72V13.56C25.24 13.82 24.98 14.09 24.71 14.09H23.92C23.66 14.09 23.4 13.82 23.4 13.56ZM23.4 8.55V6.71C23.4 6.45 23.66 6.18 23.92 6.18H24.71C24.98 6.18 25.24 6.45 25.24 6.71V8.55C25.24 8.82 24.98 9.08 24.71 9.08H23.92C23.66 9.08 23.4 8.82 23.4 8.55ZM23.4 40.16V38.58C23.4 38.06 23.66 38.06 23.92 38.06H24.71C24.98 38.06 25.24 38.06 25.24 38.58V40.16C25.24 40.43 24.98 40.69 24.71 40.69H23.92C23.66 40.69 23.4 40.43 23.4 40.16ZM23.4 35.42V33.58C23.4 33.31 23.4 33.05 23.92 33.05H24.71C24.98 33.05 25.24 33.31 25.24 33.58V35.42C25.24 35.68 24.98 35.68 24.71 35.68H23.92C23.4 35.68 23.4 35.68 23.4 35.42ZM30.77 23.3C30.77 25.41 30.24 26.99 29.19 28.05C28.14 29.36 26.82 29.89 24.71 29.89C22.87 29.89 21.29 29.36 20.23 28.05C19.18 26.99 18.65 25.41 18.65 23.3C18.65 21.2 19.18 19.62 20.23 18.56C21.29 17.25 22.87 16.72 24.71 16.72C26.82 16.72 28.14 17.25 29.19 18.56C30.24 19.62 30.77 21.2 30.77 23.3ZM21.55 23.3C21.55 24.62 21.81 25.68 22.34 26.47C22.87 27.26 23.66 27.52 24.71 27.52C26.82 27.52 27.87 26.2 27.87 23.3C27.87 20.41 26.82 19.09 24.71 19.09C23.66 19.09 22.87 19.35 22.34 20.14C21.81 20.93 21.55 21.99 21.55 23.3Z" fill="#306EBB"/>
</svg>
