<svg width="46" height="49" viewBox="0 0 46 49" fill="none" xmlns="http://www.w3.org/2000/svg">
<path fill-rule="evenodd" clip-rule="evenodd" d="M24.97 19.31H28.91C30.75 19.31 32.07 19.58 32.85 20.1C33.64 20.63 34.17 21.42 34.17 22.73C34.17 23.52 33.91 24.04 33.64 24.57C33.38 25.09 32.85 25.36 32.07 25.36V25.62C33.12 25.62 33.64 26.15 33.91 26.67C34.17 26.93 34.43 27.72 34.43 28.51C34.43 29.56 34.17 30.61 33.12 31.14C32.33 31.93 31.28 32.19 29.7 32.19H24.97V19.31ZM26.55 48.48L0.530029 32.45H17.88C19.98 36.4 24.18 39.29 29.17 39.29C30.23 39.29 31.28 39.02 32.33 38.76L26.55 48.48ZM1.58003 29.56L5.79003 22.47H16.82C16.56 23.52 16.3 24.83 16.3 26.15C16.3 27.2 16.3 28.51 16.56 29.56H1.58003ZM7.36003 19.31L18.14 0.920013L45.47 17.21L41.79 22.99C40.48 17.21 35.22 13.27 29.17 13.27C24.44 13.27 20.5 15.63 18.14 19.31H7.36003ZM39.69 26.67L34.43 35.08C33.12 36.13 31.28 36.66 29.17 36.66C23.39 36.66 18.93 31.93 18.93 26.15C18.93 20.36 23.39 15.63 29.17 15.63C34.96 15.63 39.69 20.36 39.69 26.15C39.69 26.41 39.69 26.41 39.69 26.67ZM27.6 24.57H29.17C29.96 24.57 30.49 24.31 30.75 24.04C31.28 24.04 31.28 23.52 31.28 22.99C31.28 22.47 31.28 22.2 30.75 21.94C30.49 21.68 29.96 21.68 29.17 21.68H27.6V24.57ZM27.6 26.67V30.09H29.44C30.23 30.09 30.75 29.82 31.01 29.56C31.54 29.3 31.54 28.77 31.54 28.25C31.54 27.2 31.01 26.67 29.44 26.67H27.6Z" fill="#306EBB"/>
</svg>
