<svg width="46" height="48" viewBox="0 0 46 48" fill="none" xmlns="http://www.w3.org/2000/svg">
<path fill-rule="evenodd" clip-rule="evenodd" d="M26.82 47.27L9.43998 36.47L35.51 32.79L26.82 47.27ZM9.95998 33.31L19.44 17.25L42.1 14.35L45.52 16.19L37.36 29.63L32.88 30.15V19.35H29.72L23.92 29.1H23.66L23.92 27.26V25.41V19.35H21.55V31.73L9.95998 33.31ZM30.51 30.68L25.24 31.21L30.51 22.25H30.77C30.51 24.1 30.51 25.15 30.51 25.94V30.68ZM21.55 14.09L26.82 5.13L38.15 11.98L21.55 14.09ZM5.47998 34.1L0.47998 30.94L7.58998 19.09L15.76 17.77L6.26998 33.84L5.47998 34.1ZM9.43998 15.67L18.65 0.130005L24.45 3.55L17.86 14.61L9.43998 15.67Z" fill="#306EBB"/>
</svg>
