<svg width="46" height="48" viewBox="0 0 46 48" fill="none" xmlns="http://www.w3.org/2000/svg">
<path fill-rule="evenodd" clip-rule="evenodd" d="M26.82 47.27L23.4 45.17V37.79H27.35V46.22L26.82 47.27ZM26.56 26.47H27.35C28.14 26.47 28.93 26.2 29.19 25.94C29.72 25.68 29.72 25.15 29.72 24.62C29.72 23.83 29.72 23.57 29.45 23.04C28.93 22.78 28.4 22.78 27.61 22.78H26.56V26.47ZM32.61 24.36C32.61 25.94 32.09 26.73 31.3 27.52C30.51 28.31 29.19 28.57 27.61 28.57H26.56V33.31H23.92V20.41H27.87C29.45 20.41 30.51 20.93 31.3 21.46C32.09 22.25 32.61 23.04 32.61 24.36ZM20.5 37.79V43.32L0.47998 30.94L18.65 0.130005L45.52 16.19L39.2 26.47V15.93C39.2 15.4 38.94 15.14 38.41 15.14H16.28C15.76 15.14 15.49 15.4 15.49 15.93V37C15.49 37.53 15.76 37.79 16.28 37.79H20.5ZM37.36 29.89L33.67 35.68H18.13C17.86 35.68 17.6 35.42 17.6 35.16V17.77C17.6 17.25 17.86 16.98 18.13 16.98H36.56C36.83 16.98 37.36 17.25 37.36 17.77V29.89ZM32.61 37.79L30.24 41.48V37.79H32.61Z" fill="#306EBB"/>
</svg>
