<svg width="46" height="48" viewBox="0 0 46 48" fill="none" xmlns="http://www.w3.org/2000/svg">
<path fill-rule="evenodd" clip-rule="evenodd" d="M26.82 47.27L0.47998 30.94L18.65 0.130005L45.52 16.19L40.52 24.62V14.09C40.52 13.82 39.99 13.3 39.73 13.3H17.34C17.07 13.3 16.55 13.82 16.55 14.09V35.16C16.55 35.68 17.07 35.95 17.34 35.95H33.67L26.82 47.27ZM22.6 17.77C22.6 16.72 23.4 16.19 24.45 16.19C25.5 16.19 26.03 16.72 26.03 17.77C26.03 18.3 26.03 18.83 25.77 19.09C25.5 19.09 24.98 19.35 24.45 19.35C23.4 19.35 22.6 18.83 22.6 17.77ZM26.03 32.26H22.87V20.67H26.03V32.26ZM38.41 28.05L34.72 34.1H19.18C18.92 34.1 18.65 33.84 18.65 33.31V15.93C18.65 15.67 18.92 15.14 19.18 15.14H37.88C38.15 15.14 38.41 15.67 38.41 15.93V28.05ZM30.24 16.98H36.04C36.56 16.98 36.83 17.51 36.83 17.77V23.04C36.83 23.3 36.56 23.83 36.04 23.83H30.24C29.72 23.83 29.45 23.3 29.45 23.04V17.77C29.45 17.51 29.72 16.98 30.24 16.98ZM30.24 25.68H36.56C36.83 25.68 36.83 25.68 36.83 25.94C36.83 25.94 36.83 26.2 36.56 26.2H30.24C29.98 26.2 29.72 25.94 29.72 25.94C29.72 25.68 29.98 25.68 30.24 25.68ZM29.98 28.31H36.56L36.83 28.57C36.83 28.84 36.56 29.1 36.56 29.1H29.98C29.98 29.1 29.72 28.84 29.72 28.57L29.98 28.31Z" fill="#306EBB"/>
</svg>
