<?xml version="1.0" encoding="utf-8"?>
<!-- Generator: Adobe Illustrator 22.0.1, SVG Export Plug-In . SVG Version: 6.00 Build 0)  -->
<svg version="1.1" id="Capa_1" xmlns="http://www.w3.org/2000/svg" xmlns:xlink="http://www.w3.org/1999/xlink" x="0px" y="0px"
	width="55px"  viewBox="0 0 512 384" style="enable-background:new 0 0 512 384;" xml:space="preserve">
<style type="text/css">
	.st0{fill:#ED1F24;}
</style>
<path class="st0" d="M190.2,384H504c4.4,0,8-3.6,8-8V24c0-13.3-10.7-24-24-24H24C10.7,0,0,10.7,0,24v352c0,4.4,3.6,8,8,8H190.2
	 M496,368H16v-72h112h48h48h48h48h64h112V368z M384,72h-64c-4.4,0-8,3.6-8,8v72h16V88h48v32h-32v16h32v40h-32v16h32v40h-32v16h32v32
	h-48v-64h-16v64h-32v-40c0-32.6,39.6-39.8,41.3-40.1c1-0.2,1.9-0.5,2.8-1c3.8-2.3,5-7.2,2.8-11l-72-120c-0.6-0.8-1.3-1.6-2.2-2.2
	c-3.8-2.6-9-1.6-11.6,2.2l-72,120c-0.5,0.9-0.9,1.8-1,2.8c-0.7,4.4,2.2,8.5,6.5,9.2c1.7,0.3,41.3,7.5,41.3,40.1v40h-32v-64h-16v64
	h-8V136h8v16h16v-24c0-1.1-0.2-2.2-0.6-3.2l-24-56c-0.8-1.9-2.3-3.4-4.2-4.2c-4.1-1.7-8.8,0.1-10.5,4.2l-24,56
	c-0.4,1-0.7,2.1-0.6,3.2v152H56V56h400v224h-64V80C392,75.6,388.4,72,384,72z M232,256v-8h32v8H232z M264,272v8h-32v-8H264z
	 M231.4,232c-3.8-25.4-25.6-39.2-43-45.1l51.6-86V168h16v-67.1l51.6,86c-17.4,5.8-39.2,19.6-43,45.1L231.4,232L231.4,232z
	 M140.1,120L152,92.3l11.9,27.7H140.1z M144,136v144h-8V136H144z M496,280h-24V48c0-4.4-3.6-8-8-8H48c-4.4,0-8,3.6-8,8v232H16V24
	c0-4.4,3.6-8,8-8h464c4.4,0,8,3.6,8,8V280z"/>
</svg>
